<svg width="1024" height="1024" viewBox="0 0 1024 1024" fill="none" xmlns="http://www.w3.org/2000/svg">
<g filter="url(#filter0_d_20_103)">
<path d="M706.64 100C820.41 100 912.64 200.249 912.64 323.912C912.64 387.891 887.952 445.601 848.368 486.405C894.534 527.467 924 589.883 924 659.78C924 783.443 831.77 883.692 718 883.692H401.9L595.129 673.662L635.92 717.78L670.62 573.076L537.248 611.06L578.038 655.178L367.803 883.692H100L172.123 800.686L578.649 358.814L619.439 402.933L654.142 258.229L520.769 296.211L561.56 340.329L294.556 630.548V435.868H294.64V100H706.64Z" fill="#333333"/>
</g>
<defs>
<filter id="filter0_d_20_103" x="88" y="88" width="836" height="795.692" filterUnits="userSpaceOnUse" color-interpolation-filters="sRGB">
<feFlood flood-opacity="0" result="BackgroundImageFix"/>
<feColorMatrix in="SourceAlpha" type="matrix" values="0 0 0 0 0 0 0 0 0 0 0 0 0 0 0 0 0 0 127 0" result="hardAlpha"/>
<feOffset dx="-8" dy="-8"/>
<feGaussianBlur stdDeviation="2"/>
<feComposite in2="hardAlpha" operator="out"/>
<feColorMatrix type="matrix" values="0 0 0 0 0 0 0 0 0 0 0 0 0 0 0 0 0 0 0.25 0"/>
<feBlend mode="normal" in2="BackgroundImageFix" result="effect1_dropShadow_20_103"/>
<feBlend mode="normal" in="SourceGraphic" in2="effect1_dropShadow_20_103" result="shape"/>
</filter>
</defs>
</svg>
