<svg width="24" height="24" viewBox="0 0 24 24" fill="none" xmlns="http://www.w3.org/2000/svg">
<path d="M6 21C5.16667 21 4.45833 20.7083 3.875 20.125C3.29167 19.5417 3 18.8333 3 18V12C3 11.6 3.075 11.2167 3.225 10.85C3.375 10.4833 3.59167 10.1583 3.875 9.875L9.875 3.875C10.1583 3.575 10.4877 3.354 10.863 3.212C11.2383 3.07 11.6173 2.99934 12 3C12.3827 3.00067 12.7577 3.07167 13.125 3.213C13.4923 3.35434 13.8257 3.575 14.125 3.875L14.875 4.625L7 12.5V17H17V12.5L13.4 8.9L16.275 6.05L20.125 9.875C20.4083 10.1583 20.625 10.4833 20.775 10.85C20.925 11.2167 21 11.6 21 12V18C21 18.8333 20.7083 19.5417 20.125 20.125C19.5417 20.7083 18.8333 21 18 21H6Z" fill="#333333"/>
</svg>
