<svg width="24" height="24" viewBox="0 0 24 24" fill="none" xmlns="http://www.w3.org/2000/svg">
<path d="M12 22C10.75 22 9.57933 21.7627 8.488 21.288C7.39667 20.8133 6.44667 20.1717 5.638 19.363C4.82933 18.5543 4.18767 17.6043 3.713 16.513C3.23833 15.4217 3.00067 14.2507 3 13H5C5 14.95 5.67933 16.6043 7.038 17.963C8.39667 19.3217 10.0507 20.0007 12 20C13.9493 19.9993 15.6037 19.3203 16.963 17.963C18.3223 16.6057 19.0013 14.9513 19 13C18.9987 11.0487 18.3197 9.39467 16.963 8.038C15.6063 6.68133 13.952 6.002 12 6H11.85L13.4 7.55L12 9L8 5L12 1L13.4 2.45L11.85 4H12C13.25 4 14.421 4.23767 15.513 4.713C16.605 5.18833 17.555 5.83 18.363 6.638C19.171 7.446 19.8127 8.396 20.288 9.488C20.7633 10.58 21.0007 11.7507 21 13C20.9993 14.2493 20.762 15.4203 20.288 16.513C19.814 17.6057 19.1723 18.5557 18.363 19.363C17.5537 20.1703 16.6037 20.812 15.513 21.288C14.4223 21.764 13.2513 22.0013 12 22Z" fill="#333333"/>
</svg>
